# xmcd
#
# Track frame offsets:
# 150
# 21002
# 41917
# 59122
# 85475
# 106312
# 122595
# 149707
# 168895
# 188230
# 206612
# 225865
#
# Disc length: 3130 seconds
#
# Revision: 0
# Processed by: cddbd v1.4PL0 Copyright (c) Steve Scherf et al.
# Submitted via: MacMP3 Pro 5.0 (http://mp3.act2.co.jp/)
#
DISCID=a80c380c
DTITLE=Various Artist - Ultimate Jive Hits
DYEAR=1900
DGENRE=
TTITLE0=She's Got That Vibe
TTITLE1=Summertime
TTITLE2=Boom! Shake The Room
TTITLE3=I Like Tha Way(The Kissing Game)
TTITLE4=SHe's Playing Hard To Get
TTITLE5=Bonita Applebum
TTITLE6=Back and Forth(Ms.Mello Remix)
TTITLE7=Age Aint't Nothing But A Number
TTITLE8=Bump N' Grind
TTITLE9=It's Summertime(Let It Get Into U)
TTITLE10=Froggy Style
TTITLE11=Bonita Applebum(TV Mix)
EXTD=
EXTT0=
EXTT1=
EXTT2=
EXTT3=
EXTT4=
EXTT5=
EXTT6=
EXTT7=
EXTT8=
EXTT9=
EXTT10=
EXTT11=
PLAYORDER=
